<svg xmlns="http://www.w3.org/2000/svg" xmlns:xlink="http://www.w3.org/1999/xlink" width="353" zoomAndPan="magnify" viewBox="0 0 264.75 374.999991" height="500" preserveAspectRatio="xMidYMid meet" version="1.0"><path fill="#f6d86d" d="M 188.898438 123.179688 C 188.898438 123.179688 18.757812 123.179688 18.757812 123.179688 C 18.757812 123.179688 18.757812 8.621094 18.757812 8.621094 C 18.757812 8.621094 188.898438 8.621094 188.898438 8.621094 C 188.898438 8.621094 188.898438 123.179688 188.898438 123.179688 Z M 188.898438 123.179688 " fill-opacity="1" fill-rule="nonzero"/><path fill="#f78b66" d="M 43.585938 103.292969 C 43.585938 103.292969 33.65625 103.292969 33.65625 103.292969 C 33.65625 103.292969 33.65625 55.835938 33.65625 55.835938 C 33.65625 55.835938 43.585938 55.835938 43.585938 55.835938 C 43.585938 55.835938 43.585938 103.292969 43.585938 103.292969 Z M 43.585938 103.292969 " fill-opacity="1" fill-rule="nonzero"/><path fill="#3d3937" d="M 43.648438 103.355469 C 40.449219 103.492188 36.28125 103.832031 33.113281 103.867188 C 32.972656 99.722656 32.914062 95.574219 32.882812 91.429688 C 32.769531 83.519531 33.398438 75.609375 33.390625 67.699219 C 33.40625 64.242188 33.289062 59.335938 33.179688 55.835938 C 33.179688 55.835938 33.167969 55.375 33.167969 55.375 C 33.167969 55.375 33.65625 55.359375 33.65625 55.359375 C 37.210938 55.242188 40.769531 55.117188 44.328125 55.070312 C 44.398438 59.328125 44.449219 63.59375 44.480469 67.871094 C 44.527344 79.484375 44.152344 91.796875 43.648438 103.355469 Z M 43.523438 103.230469 C 43.050781 91.414062 42.644531 79.324219 42.691406 67.53125 C 42.71875 63.640625 42.765625 59.746094 42.832031 55.835938 C 42.832031 55.835938 43.585938 56.589844 43.585938 56.589844 C 40.273438 56.542969 36.964844 56.417969 33.65625 56.3125 C 33.65625 56.3125 34.128906 55.835938 34.128906 55.835938 C 34.128906 55.835938 33.96875 61.769531 33.96875 61.769531 C 33.839844 67.703125 33.957031 73.632812 34.21875 79.566406 C 34.554688 87.472656 34.445312 95.382812 34.214844 103.292969 C 34.214844 103.292969 33.65625 102.734375 33.65625 102.734375 C 34.449219 102.753906 35.246094 102.792969 36.050781 102.828125 C 37.609375 102.902344 41.910156 103.140625 43.523438 103.230469 Z M 43.523438 103.230469 " fill-opacity="1" fill-rule="nonzero"/><path fill="#f78b66" d="M 48.550781 365.476562 C 48.550781 365.476562 32 365.476562 32 365.476562 C 32 365.476562 32 352.898438 32 352.898438 C 32 352.898438 48.550781 352.898438 48.550781 352.898438 C 48.550781 352.898438 48.550781 365.476562 48.550781 365.476562 Z M 48.550781 365.476562 " fill-opacity="1" fill-rule="nonzero"/><path fill="#3d3937" d="M 48.613281 365.539062 C 42.957031 366.097656 37.058594 366.492188 31.355469 366.035156 C 31.753906 361.660156 31.867188 357.28125 31.523438 352.898438 C 31.523438 352.898438 31.496094 352.457031 31.496094 352.457031 C 33.042969 352.359375 34.59375 352.246094 36.136719 352.175781 C 40.578125 352.03125 45.019531 351.882812 49.460938 352.03125 C 49.378906 356.566406 49.050781 361.082031 48.613281 365.539062 Z M 48.488281 365.417969 C 48.15625 361.402344 47.757812 356.875 47.660156 352.898438 C 47.660156 352.898438 48.550781 353.792969 48.550781 353.792969 C 47.171875 353.828125 45.792969 353.839844 44.414062 353.828125 C 40.273438 353.765625 36.132812 353.675781 32 353.375 C 32 353.375 32.476562 352.898438 32.476562 352.898438 C 32.410156 353.949219 32.34375 354.996094 32.308594 356.042969 C 32.171875 359.195312 32.339844 362.332031 32.601562 365.476562 C 32.601562 365.476562 32 364.875 32 364.875 C 37.546875 364.460938 42.921875 364.964844 48.488281 365.417969 Z M 48.488281 365.417969 " fill-opacity="1" fill-rule="nonzero"/><path fill="#f78b66" d="M 159.105469 365.476562 C 159.105469 365.476562 175.65625 365.476562 175.65625 365.476562 C 175.65625 365.476562 175.65625 352.898438 175.65625 352.898438 C 175.65625 352.898438 159.105469 352.898438 159.105469 352.898438 C 159.105469 352.898438 159.105469 365.476562 159.105469 365.476562 Z M 159.105469 365.476562 " fill-opacity="1" fill-rule="nonzero"/><path fill="#3d3937" d="M 159.167969 365.414062 C 164.734375 364.964844 170.113281 364.460938 175.65625 364.875 C 175.65625 364.875 175.054688 365.476562 175.054688 365.476562 C 175.316406 362.332031 175.484375 359.195312 175.34375 356.042969 C 175.3125 354.996094 175.246094 353.949219 175.179688 352.898438 C 175.179688 352.898438 175.65625 353.375 175.65625 353.375 C 171.523438 353.675781 167.382812 353.765625 163.242188 353.828125 C 161.863281 353.839844 160.484375 353.828125 159.105469 353.789062 C 159.105469 353.789062 159.996094 352.898438 159.996094 352.898438 C 159.898438 356.871094 159.5 361.40625 159.167969 365.414062 Z M 159.042969 365.539062 C 158.605469 361.082031 158.277344 356.566406 158.195312 352.03125 C 162.636719 351.882812 167.078125 352.027344 171.519531 352.175781 C 173.0625 352.246094 174.613281 352.359375 176.160156 352.457031 C 176.160156 352.457031 176.132812 352.898438 176.132812 352.898438 C 175.789062 357.277344 175.902344 361.660156 176.300781 366.035156 C 170.597656 366.492188 164.695312 366.097656 159.042969 365.539062 Z M 159.042969 365.539062 " fill-opacity="1" fill-rule="nonzero"/><path fill="#f6d86d" d="M 188.898438 358.195312 C 188.898438 358.195312 18.757812 358.195312 18.757812 358.195312 C 18.757812 358.195312 18.757812 123.179688 18.757812 123.179688 C 18.757812 123.179688 188.898438 123.179688 188.898438 123.179688 C 188.898438 123.179688 188.898438 358.195312 188.898438 358.195312 Z M 188.898438 358.195312 " fill-opacity="1" fill-rule="nonzero"/><path fill="#3d3937" d="M 188.808594 358.195312 C 188.222656 338.695312 188.023438 318.949219 188.175781 299.441406 C 188.300781 291.074219 188.550781 278.328125 188.617188 270.066406 C 188.75 250.480469 188.140625 230.894531 188.078125 211.3125 C 187.835938 182.035156 188.011719 152.429688 188.808594 123.179688 C 188.808594 123.179688 188.984375 123.179688 188.984375 123.179688 C 189.78125 152.421875 189.957031 182.035156 189.714844 211.3125 C 189.652344 230.894531 189.042969 250.480469 189.179688 270.066406 C 189.351562 286.664062 189.839844 304.890625 189.632812 321.472656 C 189.542969 333.632812 189.378906 346.054688 188.984375 358.195312 C 188.984375 358.195312 188.808594 358.195312 188.808594 358.195312 Z M 188.808594 358.195312 " fill-opacity="1" fill-rule="nonzero"/><path fill="#f9e4df" d="M 178.96875 348.015625 C 178.96875 348.015625 28.691406 348.015625 28.691406 348.015625 C 28.691406 348.015625 28.691406 133.359375 28.691406 133.359375 C 28.691406 133.359375 178.96875 133.359375 178.96875 133.359375 C 178.96875 133.359375 178.96875 348.015625 178.96875 348.015625 Z M 178.96875 348.015625 " fill-opacity="1" fill-rule="nonzero"/><path fill="#3d3937" d="M 179.054688 144.585938 C 179.574219 161.222656 179.710938 178.753906 179.746094 195.441406 C 179.414062 225.109375 178.96875 254.773438 179.664062 284.445312 C 179.859375 305.390625 180.003906 327.074219 179.777344 348.015625 C 179.777344 348.015625 179.769531 348.835938 179.769531 348.835938 C 179.769531 348.835938 178.96875 348.828125 178.96875 348.828125 C 172.75 348.757812 163.160156 348.683594 157.011719 348.5625 C 150.585938 348.445312 141.398438 348.300781 135.054688 348.101562 C 135.054688 348.101562 135.054688 347.929688 135.054688 347.929688 C 141.359375 347.730469 150.597656 347.582031 157.011719 347.46875 C 163.128906 347.347656 172.773438 347.269531 178.96875 347.203125 C 178.96875 347.203125 178.15625 348.015625 178.15625 348.015625 C 177.964844 331.441406 178.046875 313.765625 178.160156 297.15625 C 178.222656 280.203125 178.667969 263.253906 178.699219 246.300781 C 178.742188 225.261719 177.957031 203.800781 178.230469 182.730469 C 178.3125 171.140625 178.46875 159.359375 178.78125 147.765625 C 178.78125 147.765625 178.878906 144.585938 178.878906 144.585938 C 178.878906 144.585938 179.054688 144.585938 179.054688 144.585938 Z M 179.054688 144.585938 " fill-opacity="1" fill-rule="nonzero"/><path fill="#3d3937" d="M 28.601562 333.257812 C 28.347656 325.066406 28.175781 316.449219 28.078125 308.273438 C 27.441406 275 28.960938 241.582031 28.171875 208.324219 C 27.816406 183.058594 27.632812 157.792969 27.875 132.527344 C 34.53125 132.605469 44.382812 132.675781 50.976562 132.804688 C 57.503906 132.921875 66.824219 133.070312 73.265625 133.273438 C 73.265625 133.273438 73.265625 133.449219 73.265625 133.449219 C 66.867188 133.652344 57.488281 133.804688 50.976562 133.917969 C 44.765625 134.042969 34.976562 134.113281 28.691406 134.183594 C 28.691406 134.183594 29.515625 133.359375 29.515625 133.359375 C 29.699219 150.019531 29.597656 166.675781 29.488281 183.335938 C 29.417969 199.992188 28.976562 216.652344 28.957031 233.308594 C 29.136719 262.371094 29.867188 291.695312 29.101562 320.765625 C 29.101562 320.765625 28.953125 327.011719 28.953125 327.011719 C 28.953125 327.011719 28.875 330.136719 28.875 330.136719 C 28.875 330.136719 28.777344 333.257812 28.777344 333.257812 C 28.777344 333.257812 28.601562 333.257812 28.601562 333.257812 Z M 28.601562 333.257812 " fill-opacity="1" fill-rule="nonzero"/><path fill="#f78b66" d="M 178.96875 184.085938 C 178.96875 184.085938 28.691406 184.085938 28.691406 184.085938 C 28.691406 184.085938 28.691406 177.90625 28.691406 177.90625 C 28.691406 177.90625 178.96875 177.90625 178.96875 177.90625 C 178.96875 177.90625 178.96875 184.085938 178.96875 184.085938 Z M 178.96875 184.085938 " fill-opacity="1" fill-rule="nonzero"/><path fill="#3d3937" d="M 179.027344 184.148438 C 141.828125 184.828125 103.480469 184.960938 66.316406 184.394531 C 54.140625 184.304688 40.898438 184.371094 28.691406 184.496094 C 28.691406 184.496094 28.285156 184.5 28.285156 184.5 C 28.285156 184.5 28.277344 184.085938 28.277344 184.085938 C 28.277344 184.085938 28.214844 177.90625 28.214844 177.90625 C 28.214844 177.90625 28.210938 177.4375 28.210938 177.4375 C 28.210938 177.4375 28.691406 177.429688 28.691406 177.429688 C 75.375 176.847656 122.863281 176.8125 169.574219 177.523438 C 169.574219 177.523438 178.96875 177.691406 178.96875 177.691406 C 178.96875 177.691406 179.1875 177.695312 179.1875 177.695312 C 179.15625 179.871094 179.078125 182.042969 179.027344 184.148438 Z M 178.90625 184.023438 C 178.859375 181.941406 178.785156 179.914062 178.75 177.90625 C 178.75 177.90625 178.96875 178.121094 178.96875 178.121094 C 178.96875 178.121094 169.574219 178.292969 169.574219 178.292969 C 135.621094 178.800781 100.195312 178.953125 66.257812 178.714844 C 53.738281 178.660156 41.214844 178.542969 28.691406 178.382812 C 28.691406 178.382812 29.164062 177.90625 29.164062 177.90625 C 29.164062 177.90625 29.101562 184.085938 29.101562 184.085938 C 29.101562 184.085938 28.691406 183.675781 28.691406 183.675781 C 40.875 183.800781 54.074219 183.871094 66.199219 183.777344 C 103.390625 183.195312 141.691406 183.363281 178.90625 184.023438 Z M 178.90625 184.023438 " fill-opacity="1" fill-rule="nonzero"/><path fill="#f78b66" d="M 178.96875 236.398438 C 178.96875 236.398438 28.691406 236.398438 28.691406 236.398438 C 28.691406 236.398438 28.691406 230.222656 28.691406 230.222656 C 28.691406 230.222656 178.96875 230.222656 178.96875 230.222656 C 178.96875 230.222656 178.96875 236.398438 178.96875 236.398438 Z M 178.96875 236.398438 " fill-opacity="1" fill-rule="nonzero"/><path fill="#3d3937" d="M 179.027344 236.460938 C 141.828125 237.140625 103.480469 237.277344 66.316406 236.707031 C 54.140625 236.617188 40.898438 236.683594 28.691406 236.8125 C 28.691406 236.8125 28.285156 236.816406 28.285156 236.816406 C 28.285156 236.816406 28.277344 236.398438 28.277344 236.398438 C 28.277344 236.398438 28.214844 230.222656 28.214844 230.222656 C 28.214844 230.222656 28.210938 229.75 28.210938 229.75 C 28.210938 229.75 28.691406 229.746094 28.691406 229.746094 C 75.375 229.164062 122.863281 229.125 169.574219 229.835938 C 169.574219 229.835938 178.96875 230.003906 178.96875 230.003906 C 178.96875 230.003906 179.1875 230.007812 179.1875 230.007812 C 179.15625 232.1875 179.078125 234.355469 179.027344 236.460938 Z M 178.90625 236.339844 C 178.859375 234.257812 178.785156 232.226562 178.75 230.222656 C 178.75 230.222656 178.96875 230.4375 178.96875 230.4375 C 178.96875 230.4375 169.574219 230.605469 169.574219 230.605469 C 135.621094 231.117188 100.195312 231.265625 66.257812 231.03125 C 53.738281 230.976562 41.214844 230.859375 28.691406 230.695312 C 28.691406 230.695312 29.164062 230.222656 29.164062 230.222656 C 29.164062 230.222656 29.101562 236.398438 29.101562 236.398438 C 29.101562 236.398438 28.691406 235.988281 28.691406 235.988281 C 40.875 236.113281 54.074219 236.183594 66.199219 236.09375 C 103.390625 235.511719 141.691406 235.679688 178.90625 236.339844 Z M 178.90625 236.339844 " fill-opacity="1" fill-rule="nonzero"/><path fill="#7db7e8" d="M 67.453125 230.222656 C 67.453125 230.222656 44.945312 230.222656 44.945312 230.222656 C 44.945312 230.222656 44.945312 217.554688 44.945312 217.554688 C 44.945312 217.554688 67.453125 217.554688 67.453125 217.554688 C 67.453125 217.554688 67.453125 230.222656 67.453125 230.222656 Z M 67.453125 230.222656 " fill-opacity="1" fill-rule="nonzero"/><path fill="#f78b66" d="M 178.96875 296.195312 C 178.96875 296.195312 28.691406 296.195312 28.691406 296.195312 C 28.691406 296.195312 28.691406 290.015625 28.691406 290.015625 C 28.691406 290.015625 178.96875 290.015625 178.96875 290.015625 C 178.96875 290.015625 178.96875 296.195312 178.96875 296.195312 Z M 178.96875 296.195312 " fill-opacity="1" fill-rule="nonzero"/><path fill="#3d3937" d="M 179.027344 296.253906 C 141.828125 296.933594 103.480469 297.070312 66.316406 296.5 C 54.140625 296.410156 40.898438 296.480469 28.691406 296.605469 C 28.691406 296.605469 28.285156 296.609375 28.285156 296.609375 C 28.285156 296.609375 28.277344 296.195312 28.277344 296.195312 C 28.277344 296.195312 28.214844 290.015625 28.214844 290.015625 C 28.214844 290.015625 28.210938 289.546875 28.210938 289.546875 C 28.210938 289.546875 28.691406 289.539062 28.691406 289.539062 C 75.375 288.957031 122.863281 288.921875 169.574219 289.632812 C 169.574219 289.632812 178.96875 289.800781 178.96875 289.800781 C 178.96875 289.800781 179.1875 289.804688 179.1875 289.804688 C 179.15625 291.980469 179.078125 294.152344 179.027344 296.253906 Z M 178.90625 296.132812 C 178.859375 294.050781 178.785156 292.019531 178.75 290.015625 C 178.75 290.015625 178.96875 290.230469 178.96875 290.230469 C 178.96875 290.230469 169.574219 290.398438 169.574219 290.398438 C 135.621094 290.910156 100.195312 291.058594 66.257812 290.824219 C 53.738281 290.769531 41.214844 290.652344 28.691406 290.492188 C 28.691406 290.492188 29.164062 290.015625 29.164062 290.015625 C 29.164062 290.015625 29.101562 296.195312 29.101562 296.195312 C 29.101562 296.195312 28.691406 295.78125 28.691406 295.78125 C 40.875 295.90625 54.074219 295.980469 66.199219 295.886719 C 103.390625 295.304688 141.691406 295.472656 178.90625 296.132812 Z M 178.90625 296.132812 " fill-opacity="1" fill-rule="nonzero"/><path fill="#3d3937" d="M 67.515625 230.28125 C 61.976562 230.625 56.308594 230.875 50.714844 230.960938 C 49.28125 230.988281 46.382812 231.003906 44.945312 230.988281 C 44.945312 230.988281 44.167969 230.984375 44.167969 230.984375 C 44.167969 230.984375 44.179688 230.21875 44.179688 230.21875 C 44.371094 222.335938 44.9375 214.449219 44.566406 206.558594 C 44.566406 205.804688 44.429688 204.757812 44.757812 204.046875 C 45.292969 202.527344 46.917969 201.5625 48.507812 201.644531 C 48.867188 201.632812 51.054688 201.550781 51.46875 201.546875 C 54.878906 201.476562 59.898438 201.378906 63.300781 201.347656 C 63.300781 201.347656 63.890625 201.339844 63.890625 201.339844 C 65.628906 201.183594 67.433594 202.214844 68.078125 203.871094 C 68.464844 204.640625 68.371094 205.75 68.371094 206.585938 C 68.300781 214.457031 67.925781 222.777344 67.515625 230.28125 Z M 67.394531 230.160156 C 66.960938 221.496094 66.59375 213.703125 66.523438 205.386719 C 66.53125 204.25 65.5625 203.234375 64.425781 203.183594 C 62.335938 203.136719 58.335938 203.101562 56.199219 203.058594 C 54.636719 203.03125 50.613281 202.949219 49.101562 202.886719 C 49.101562 202.886719 48.507812 202.867188 48.507812 202.867188 C 46.949219 202.632812 45.417969 203.757812 45.367188 205.378906 C 45.167969 210.503906 45.144531 215.632812 45.371094 220.753906 C 45.503906 223.910156 45.675781 227.066406 45.714844 230.21875 C 45.714844 230.21875 44.945312 229.453125 44.945312 229.453125 C 44.945312 229.453125 47.6875 229.441406 47.6875 229.441406 C 54.269531 229.496094 60.785156 229.785156 67.394531 230.160156 Z M 67.394531 230.160156 " fill-opacity="1" fill-rule="nonzero"/><path fill="#7db7e8" d="M 159.546875 290.015625 C 159.546875 290.015625 127.109375 290.015625 127.109375 290.015625 C 127.109375 290.015625 127.109375 280.519531 127.109375 280.519531 C 127.109375 280.519531 159.546875 280.519531 159.546875 280.519531 C 159.546875 280.519531 159.546875 290.015625 159.546875 290.015625 Z M 159.546875 290.015625 " fill-opacity="1" fill-rule="nonzero"/><path fill="#3d3937" d="M 159.609375 290.078125 C 154.34375 290.464844 148.96875 290.746094 143.660156 290.78125 C 143.660156 290.78125 142.90625 290.792969 142.90625 290.792969 C 142.832031 287.636719 142.910156 284.476562 143.074219 281.324219 C 143.371094 276.253906 143.5 271.183594 143.300781 266.113281 C 143.3125 265.429688 143.152344 264.496094 143.34375 263.824219 C 143.660156 262.503906 144.9375 261.496094 146.304688 261.457031 C 146.382812 261.457031 146.628906 261.4375 146.714844 261.4375 C 148.34375 261.367188 149.976562 261.316406 151.605469 261.28125 C 151.859375 261.265625 156.4375 261.195312 156.492188 261.1875 C 158.195312 261.039062 159.808594 262.023438 160.316406 263.6875 C 160.5625 264.402344 160.449219 265.402344 160.480469 266.148438 C 160.472656 268.3125 160.457031 270.691406 160.398438 272.835938 C 160.238281 278.457031 159.96875 284.5625 159.609375 290.078125 Z M 159.488281 289.953125 C 159.082031 282.699219 158.707031 275.398438 158.621094 268.1875 C 158.621094 268.1875 158.617188 266.074219 158.617188 266.074219 C 158.609375 265.773438 158.632812 264.851562 158.617188 264.558594 C 158.578125 263.710938 157.84375 262.972656 156.988281 262.925781 C 153.8125 262.851562 149.871094 262.808594 146.714844 262.660156 C 146.265625 262.628906 145.792969 262.613281 145.371094 262.8125 C 144.503906 263.183594 144.023438 264.054688 144.058594 265.023438 C 144.027344 266.082031 143.972656 267.234375 143.960938 268.285156 C 143.84375 272.632812 144 276.976562 144.246094 281.324219 C 144.394531 284.21875 144.476562 287.117188 144.425781 290.015625 C 144.425781 290.015625 143.660156 289.246094 143.660156 289.246094 C 148.839844 289.285156 154.28125 289.617188 159.488281 289.953125 Z M 159.488281 289.953125 " fill-opacity="1" fill-rule="nonzero"/><path fill="#3d3937" d="M 143.058594 290.078125 C 137.796875 290.464844 132.417969 290.746094 127.109375 290.78125 C 127.109375 290.78125 126.355469 290.792969 126.355469 290.792969 C 126.28125 287.636719 126.359375 284.476562 126.523438 281.324219 C 126.820312 276.253906 126.949219 271.183594 126.75 266.113281 C 126.761719 265.429688 126.601562 264.496094 126.792969 263.824219 C 127.109375 262.503906 128.386719 261.496094 129.753906 261.457031 C 129.832031 261.457031 130.082031 261.4375 130.164062 261.4375 C 131.792969 261.367188 133.425781 261.316406 135.054688 261.28125 C 135.308594 261.265625 139.886719 261.195312 139.941406 261.1875 C 141.644531 261.039062 143.257812 262.023438 143.765625 263.6875 C 144.011719 264.402344 143.898438 265.402344 143.929688 266.148438 C 143.925781 268.3125 143.90625 270.691406 143.847656 272.835938 C 143.6875 278.457031 143.417969 284.5625 143.058594 290.078125 Z M 142.9375 289.953125 C 142.53125 282.699219 142.15625 275.398438 142.070312 268.1875 C 142.070312 268.1875 142.066406 266.074219 142.066406 266.074219 C 142.058594 265.773438 142.082031 264.851562 142.066406 264.558594 C 142.027344 263.710938 141.292969 262.972656 140.4375 262.925781 C 137.261719 262.851562 133.320312 262.808594 130.164062 262.660156 C 129.714844 262.628906 129.242188 262.613281 128.820312 262.8125 C 127.953125 263.183594 127.472656 264.054688 127.507812 265.023438 C 127.476562 266.082031 127.421875 267.234375 127.410156 268.285156 C 127.292969 272.632812 127.449219 276.976562 127.695312 281.324219 C 127.84375 284.21875 127.925781 287.117188 127.875 290.015625 C 127.875 290.015625 127.109375 289.246094 127.109375 289.246094 C 132.289062 289.285156 137.734375 289.617188 142.9375 289.953125 Z M 142.9375 289.953125 " fill-opacity="1" fill-rule="nonzero"/><path fill="#3d3937" d="M 50.976562 202.253906 C 50.785156 201.457031 50.671875 200.660156 50.554688 199.867188 C 50.5 199.460938 50.449219 199.089844 50.410156 198.652344 C 50.367188 197.792969 51.160156 197.117188 52.019531 197.152344 C 54.996094 196.933594 57.996094 196.933594 60.972656 197.152344 C 61.828125 197.113281 62.628906 197.792969 62.582031 198.652344 C 62.542969 199.089844 62.492188 199.460938 62.441406 199.867188 C 62.320312 200.660156 62.207031 201.457031 62.015625 202.253906 C 61.742188 201.113281 61.582031 199.855469 61.441406 198.691406 C 61.328125 198.453125 61.207031 198.5625 60.972656 198.5625 C 60.972656 198.5625 60.675781 198.585938 60.675781 198.585938 C 58.492188 198.734375 56.296875 198.761719 54.109375 198.679688 C 53.53125 198.65625 52.894531 198.621094 52.316406 198.582031 C 52.316406 198.582031 52.019531 198.558594 52.019531 198.558594 C 51.777344 198.558594 51.667969 198.449219 51.546875 198.691406 C 51.410156 199.855469 51.246094 201.109375 50.976562 202.253906 Z M 50.976562 202.253906 " fill-opacity="1" fill-rule="nonzero"/><path fill="#3d3937" d="M 131.59375 262.046875 C 131.320312 261.105469 131.15625 260.167969 131.023438 259.207031 C 130.945312 258.570312 130.808594 257.960938 131.230469 257.375 C 131.414062 257.09375 131.839844 256.875 132.210938 256.886719 C 133.15625 256.816406 134.105469 256.789062 135.054688 256.78125 C 136 256.785156 136.949219 256.8125 137.894531 256.886719 C 138.625 256.859375 139.117188 257.519531 139.164062 258.140625 C 139.195312 258.332031 139.167969 258.546875 139.144531 258.734375 C 139.085938 259.195312 139.023438 259.699219 138.941406 260.15625 C 138.828125 260.785156 138.703125 261.417969 138.515625 262.046875 C 138.171875 260.878906 137.996094 259.699219 137.855469 258.496094 C 137.855469 258.441406 137.773438 258.261719 137.742188 258.289062 C 137.734375 258.328125 137.882812 258.402344 137.949219 258.40625 C 136.222656 258.558594 134.074219 258.550781 132.210938 258.414062 C 132.210938 258.414062 132.152344 258.410156 132.152344 258.410156 C 132.152344 258.410156 132.125 258.40625 132.125 258.40625 C 132.195312 258.414062 132.363281 258.339844 132.363281 258.285156 C 132.355469 258.265625 132.308594 258.316406 132.285156 258.382812 C 132.238281 258.453125 132.238281 258.652344 132.222656 258.734375 C 132.085938 259.855469 131.910156 260.953125 131.59375 262.046875 Z M 131.59375 262.046875 " fill-opacity="1" fill-rule="nonzero"/><path fill="#3d3937" d="M 148.144531 262.046875 C 147.867188 261.105469 147.707031 260.167969 147.574219 259.207031 C 147.496094 258.570312 147.355469 257.960938 147.78125 257.375 C 147.960938 257.09375 148.390625 256.875 148.761719 256.886719 C 149.707031 256.816406 150.65625 256.789062 151.605469 256.78125 C 152.550781 256.785156 153.5 256.8125 154.445312 256.886719 C 155.175781 256.859375 155.667969 257.519531 155.714844 258.140625 C 155.746094 258.332031 155.71875 258.546875 155.695312 258.734375 C 155.636719 259.195312 155.570312 259.699219 155.492188 260.15625 C 155.378906 260.785156 155.253906 261.417969 155.0625 262.046875 C 154.722656 260.878906 154.546875 259.699219 154.40625 258.496094 C 154.402344 258.441406 154.324219 258.261719 154.292969 258.289062 C 154.28125 258.328125 154.433594 258.402344 154.5 258.40625 C 152.773438 258.558594 150.625 258.550781 148.761719 258.414062 C 148.761719 258.414062 148.703125 258.410156 148.703125 258.410156 C 148.703125 258.410156 148.671875 258.40625 148.671875 258.40625 C 148.746094 258.414062 148.914062 258.339844 148.914062 258.285156 C 148.90625 258.265625 148.859375 258.316406 148.832031 258.382812 C 148.789062 258.453125 148.789062 258.652344 148.769531 258.734375 C 148.632812 259.855469 148.460938 260.953125 148.144531 262.046875 Z M 148.144531 262.046875 " fill-opacity="1" fill-rule="nonzero"/><path fill="#f6d86d" d="M 18.957031 359.285156 C 18.957031 359.285156 188.898438 358.195312 188.898438 358.195312 C 188.898438 358.195312 188.898438 123.179688 188.898438 123.179688 C 188.898438 123.179688 19.128906 122.910156 19.128906 122.910156 C 19.128906 122.910156 18.957031 359.285156 18.957031 359.285156 Z M 18.957031 359.285156 " fill-opacity="1" fill-rule="nonzero"/><path fill="#3d3937" d="M 18.757812 123.09375 C 32.871094 122.507812 47.167969 122.304688 61.292969 122.457031 C 67.355469 122.582031 76.578125 122.835938 82.5625 122.898438 C 93.195312 123.007812 103.828125 122.679688 114.460938 122.484375 C 139.214844 122.121094 164.160156 122.140625 188.898438 123.09375 C 188.898438 123.09375 188.898438 123.269531 188.898438 123.269531 C 164.164062 124.222656 139.210938 124.242188 114.460938 123.878906 C 103.828125 123.683594 93.195312 123.355469 82.5625 123.460938 C 70.542969 123.636719 57.351562 124.125 45.34375 123.917969 C 36.539062 123.828125 27.550781 123.660156 18.757812 123.269531 C 18.757812 123.269531 18.757812 123.09375 18.757812 123.09375 Z M 18.757812 123.09375 " fill-opacity="1" fill-rule="nonzero"/><path fill="#f78b66" d="M 43.199219 199.851562 C 43.199219 199.851562 33.269531 199.851562 33.269531 199.851562 C 33.269531 199.851562 33.269531 152.394531 33.269531 152.394531 C 33.269531 152.394531 43.199219 152.394531 43.199219 152.394531 C 43.199219 152.394531 43.199219 199.851562 43.199219 199.851562 Z M 43.199219 199.851562 " fill-opacity="1" fill-rule="nonzero"/><path fill="#3d3937" d="M 43.257812 199.910156 C 40.0625 200.050781 35.894531 200.390625 32.726562 200.421875 C 32.585938 196.277344 32.527344 192.132812 32.496094 187.984375 C 32.382812 180.074219 33.011719 172.167969 33.003906 164.257812 C 33.019531 160.796875 32.902344 155.894531 32.792969 152.394531 C 32.792969 152.394531 32.78125 151.933594 32.78125 151.933594 C 32.78125 151.933594 33.269531 151.917969 33.269531 151.917969 C 36.824219 151.800781 40.382812 151.671875 43.941406 151.628906 C 44.011719 155.886719 44.0625 160.148438 44.09375 164.429688 C 44.140625 176.042969 43.765625 188.355469 43.257812 199.910156 Z M 43.136719 199.789062 C 42.664062 187.96875 42.257812 175.882812 42.304688 164.085938 C 42.332031 160.199219 42.378906 156.304688 42.445312 152.394531 C 42.445312 152.394531 43.199219 153.148438 43.199219 153.148438 C 39.886719 153.097656 36.578125 152.976562 33.269531 152.867188 C 33.269531 152.867188 33.742188 152.394531 33.742188 152.394531 C 33.742188 152.394531 33.582031 158.324219 33.582031 158.324219 C 33.453125 164.261719 33.570312 170.191406 33.832031 176.121094 C 34.167969 184.03125 34.058594 191.941406 33.828125 199.851562 C 33.828125 199.851562 33.269531 199.289062 33.269531 199.289062 C 34.0625 199.308594 34.859375 199.351562 35.664062 199.386719 C 37.222656 199.460938 41.523438 199.695312 43.136719 199.789062 Z M 43.136719 199.789062 " fill-opacity="1" fill-rule="nonzero"/><path fill="#f78b66" d="M 19.125 359.308594 C 19.125 359.308594 19.109375 359.304688 19.109375 359.304688 C 19.109375 359.304688 19.128906 122.910156 19.128906 122.910156 C 19.128906 122.910156 19.128906 122.980469 19.128906 122.980469 C 19.128906 122.980469 19.125 359.308594 19.125 359.308594 Z M 19.125 359.308594 " fill-opacity="1" fill-rule="nonzero"/></svg>